<svg width="63" height="43" viewBox="0 0 63 43" fill="none" xmlns="http://www.w3.org/2000/svg">
<rect width="63" height="43" fill="white"/>
<path d="M1.496 43C0.962667 43 0.696 42.7333 0.696 42.2V1.144C0.696 0.610664 0.962667 0.343998 1.496 0.343998H12.824C13.3573 0.343998 13.624 0.610664 13.624 1.144V42.2C13.624 42.7333 13.3573 43 12.824 43H1.496Z" fill="black"/>
<path d="M17.8085 43C17.2752 43 17.0085 42.7333 17.0085 42.2V8.376C17.0085 7.88533 17.1792 7.45867 17.5205 7.096L23.7605 0.855999C24.1232 0.514665 24.5498 0.343998 25.0405 0.343998H32.1125C32.6245 0.343998 33.0512 0.514665 33.3925 0.855999L38.8005 6.264H40.2725L45.6805 0.855999C46.0218 0.514665 46.4485 0.343998 46.9605 0.343998H54.0325C54.5445 0.343998 54.9712 0.514665 55.3125 0.855999L61.5845 7.096C61.9258 7.45867 62.0965 7.88533 62.0965 8.376V42.2C62.0965 42.7333 61.8298 43 61.2965 43H49.9365C49.4032 43 49.1365 42.7333 49.1365 42.2V14.84H46.0325V42.2C46.0325 42.7333 45.7658 43 45.2325 43H33.8725C33.3392 43 33.0725 42.7333 33.0725 42.2V14.84H29.9365V42.2C29.9365 42.7333 29.6698 43 29.1365 43H17.8085Z" fill="#42A4FF"/>
</svg>
