<svg width="672" height="474" viewBox="0 0 672 474" fill="none" xmlns="http://www.w3.org/2000/svg">
<g clip-path="url(#clip0_36104_1549)">
<path d="M311.073 391.535L328.674 386.349L323.538 404L328.674 421.601L311.073 416.465L293.422 421.601L298.607 404L293.422 386.349L311.073 391.535Z" fill="black" stroke="white" stroke-miterlimit="10"/>
</g>
<g clip-path="url(#clip1_36104_1549)">
<path d="M125.022 304.509L156.498 321.659L125.022 338.947L107.803 370.354L90.5839 338.947L59.1079 321.659L90.5839 304.509L107.803 272.964L125.022 304.509Z" fill="black" stroke="white" stroke-miterlimit="10"/>
</g>
<path d="M345.66 160.187C414.099 197.937 472.832 237.935 512.465 272.077C532.284 289.151 547.307 304.742 556.38 317.842C560.918 324.393 563.95 330.297 565.362 335.433C566.773 340.568 566.554 344.89 564.654 348.333C562.754 351.777 559.216 354.268 554.121 355.813C549.023 357.359 542.411 357.943 534.45 357.6C518.53 356.913 497.328 352.524 472.314 344.868C422.294 329.558 357.131 301.216 288.692 263.465C220.253 225.715 161.519 185.717 121.886 151.575C102.067 134.501 87.0452 118.91 77.9716 105.81C73.4342 99.2595 70.4007 93.3547 68.9888 88.2182C67.5777 83.0844 67.7973 78.7628 69.6966 75.319C71.5962 71.8752 75.1347 69.3836 80.2301 67.8385C85.3278 66.2927 91.9406 65.7087 99.9018 66.0521C115.822 66.739 137.023 71.1281 162.037 78.784C212.058 94.0937 277.22 122.436 345.66 160.187Z" stroke="black"/>
<path d="M325.429 196.861C393.869 234.611 452.602 274.609 492.234 308.751C512.054 325.825 527.076 341.416 536.15 354.516C540.687 361.066 543.72 366.971 545.132 372.107C546.543 377.241 546.323 381.563 544.424 385.007C542.524 388.451 538.986 390.942 533.891 392.487C528.793 394.033 522.181 394.617 514.22 394.274C498.299 393.587 477.098 389.198 452.084 381.542C402.063 366.232 336.901 337.89 268.462 300.139C200.022 262.389 141.288 222.391 101.656 188.249C81.8368 171.175 66.8147 155.584 57.7411 142.484C53.2037 135.933 50.1702 130.029 48.7583 124.892C47.3472 119.758 47.5668 115.437 49.4662 111.993C51.3658 108.549 54.9043 106.057 59.9996 104.512C65.0974 102.966 71.7101 102.383 79.6714 102.726C95.5917 103.413 116.793 107.802 141.807 115.458C191.827 130.768 256.99 159.11 325.429 196.861Z" stroke="black"/>
<path d="M305.201 233.535C373.64 271.285 432.373 311.283 472.006 345.425C491.825 362.499 506.848 378.09 515.921 391.19C520.459 397.741 523.491 403.645 524.903 408.782C526.315 413.916 526.095 418.238 524.195 421.682C522.295 425.125 518.757 427.616 513.662 429.161C508.564 430.707 501.952 431.292 493.991 430.948C478.071 430.261 456.869 425.872 431.855 418.216C381.835 402.906 316.672 374.564 248.233 336.814C179.794 299.063 121.06 259.065 81.4274 224.923C61.6083 207.849 46.5862 192.258 37.5126 179.158C32.9752 172.608 29.9417 166.703 28.5298 161.566C27.1187 156.433 27.3383 152.111 29.2377 148.667C31.1372 145.223 34.6758 142.732 39.7711 141.187C44.8689 139.641 51.4816 139.057 59.4428 139.4C75.3632 140.087 96.5644 144.476 121.578 152.132C171.599 167.442 236.761 195.784 305.201 233.535Z" stroke="black"/>
<circle cx="131.574" cy="63.5" r="15.5" fill="#005FA0" fill-opacity="0.6"/>
<circle cx="421.074" cy="394" r="10" fill="#005FA0" fill-opacity="0.6"/>
<circle cx="81.5742" cy="23.5" r="23.5" fill="black"/>
<path d="M377.509 407.59C371.205 409.744 364.001 405.475 361.495 398.071L322.496 283.81L345.284 276.015L384.322 390.433C386.828 397.758 383.774 405.436 377.509 407.59Z" fill="black"/>
<path d="M374.102 409C372.262 409 370.383 408.569 368.581 407.668C364.94 405.866 362.042 402.498 360.633 398.345L321.634 284.084C321.478 283.653 321.713 283.144 322.182 282.987L344.971 275.192C345.206 275.113 345.441 275.113 345.636 275.231C345.832 275.348 345.989 275.505 346.067 275.74L385.105 390.159C387.728 397.914 384.439 406.101 377.744 408.412C376.608 408.804 375.355 409 374.102 409ZM323.592 284.358L362.317 397.797C363.57 401.518 366.154 404.574 369.364 406.14C371.949 407.394 374.729 407.629 377.235 406.767C383.03 404.769 385.849 397.562 383.5 390.707L344.736 277.111L323.592 284.358Z" fill="black"/>
<path d="M341.251 177.382L267.521 229.988L238.821 259.798L227.544 279.736L227.505 279.892C225.273 283.339 226.565 291.291 230.755 299.399C234.866 307.39 240.661 312.953 244.733 313.266L244.616 313.344L266.268 315.695L306.794 309.231L392.818 278.443L499.751 296.775L500.495 296.814C473.635 291.8 437.377 255.88 411.025 205.076C384.713 154.31 376.334 104.132 387.885 79.376H387.845L341.838 176.128L341.251 177.382Z" fill="#005FA0"/>
<path d="M518.266 294.603C544.694 280.873 539.583 218.629 506.852 155.577C474.121 92.5247 426.163 52.5412 399.736 66.2711C373.308 80.001 378.419 142.245 411.15 205.297C443.881 268.349 491.839 308.333 518.266 294.603Z" fill="white"/>
<path d="M506.643 298.185C495.131 298.185 481.27 291.761 466.352 279.266C446.031 262.266 426.101 236.06 410.243 205.428C386.241 159.05 376.334 111.496 385.027 84.2726C387.924 75.1849 392.78 68.8392 399.397 65.4313C412.553 58.6939 431.073 64.4129 451.591 81.5698C471.912 98.57 491.842 124.775 507.7 155.407C531.742 201.786 541.648 249.339 532.916 276.563C530.019 285.651 525.163 291.996 518.546 295.404C514.983 297.284 510.989 298.185 506.643 298.185ZM411.378 64.4129C407.345 64.4129 403.586 65.2355 400.219 66.9982C393.993 70.171 389.451 76.2033 386.711 84.8601C378.136 111.692 388.003 158.737 411.809 204.723C444.23 267.279 491.764 307.312 517.802 293.955C524.028 290.782 528.57 284.75 531.311 276.093C539.886 249.261 530.019 202.216 506.212 156.23C477.981 101.782 438.356 64.4129 411.378 64.4129Z" fill="black"/>
<path d="M506.643 298.185C495.131 298.185 481.27 291.761 466.352 279.266C446.031 262.265 426.101 236.06 410.243 205.428C386.241 159.05 376.334 111.496 385.027 84.2725C387.924 75.1848 392.78 68.8391 399.397 65.4312C408.207 60.8874 419.718 62.0234 432.679 68.6824C445.091 75.0673 458.521 86.3877 471.599 101.39C471.912 101.743 471.873 102.291 471.521 102.604C471.168 102.918 470.62 102.879 470.307 102.526C443.76 72.0511 416.899 58.4196 400.219 66.9981C393.993 70.1709 389.451 76.2033 386.711 84.86C378.136 111.692 388.003 158.737 411.809 204.723C440.001 259.132 479.665 296.54 506.604 296.54C510.637 296.54 514.396 295.717 517.763 293.955C523.989 290.782 528.531 284.75 531.272 276.093C539.847 249.261 529.98 202.216 506.173 156.23C499.086 142.52 491.098 129.632 482.523 117.92C482.249 117.529 482.328 116.98 482.719 116.706C483.111 116.432 483.659 116.51 483.933 116.902C492.586 128.692 500.574 141.658 507.739 155.446C531.742 201.785 541.648 249.339 532.916 276.563C530.019 285.65 525.163 291.996 518.546 295.404C514.983 297.284 510.989 298.185 506.643 298.185Z" fill="black"/>
<path d="M458.303 214.339C464.426 211.158 463.248 196.751 455.673 182.159C448.098 167.567 436.995 158.316 430.872 161.497C424.75 164.678 425.928 179.085 433.503 193.677C441.077 208.269 452.181 217.52 458.303 214.339Z" fill="#005FA0"/>
<path d="M455.624 215.848C448.889 215.848 439.492 207.152 432.718 194.03C427.08 183.14 424.77 171.937 426.845 165.474C427.589 163.202 428.803 161.596 430.486 160.734C437.143 157.326 448.537 166.61 456.446 181.847C462.085 192.737 464.395 203.94 462.32 210.403C461.576 212.675 460.362 214.281 458.678 215.143C457.738 215.613 456.72 215.848 455.624 215.848ZM433.54 161.714C432.718 161.714 431.935 161.87 431.269 162.223C429.977 162.889 429.038 164.142 428.45 165.983C426.532 172.016 428.764 182.748 434.206 193.246C441.411 207.152 452.257 216.514 457.856 213.615C459.148 212.949 460.088 211.696 460.675 209.855C462.594 203.783 460.323 193.09 454.919 182.592C448.576 170.41 439.492 161.714 433.54 161.714Z" fill="#005FA0"/>
<path d="M500.692 283.574C490.59 283.574 478.452 277.934 465.374 267.005C447.597 252.12 430.134 229.166 416.273 202.373C395.247 161.792 386.593 120.153 394.19 96.2978C396.735 88.307 401.003 82.7447 406.837 79.7285C420.228 72.8736 439.923 80.7861 460.91 101.429C461.262 101.782 461.262 102.291 460.91 102.644C460.558 102.996 460.049 102.996 459.696 102.644C439.257 82.5488 420.267 74.7146 407.62 81.2562C402.216 84.0373 398.262 89.2471 395.834 96.8071C388.355 120.231 396.97 161.361 417.8 201.589C442.429 249.182 477.081 281.851 500.653 281.851C504.177 281.851 507.426 281.107 510.402 279.618C515.806 276.837 519.76 271.627 522.188 264.067C529.667 240.643 521.052 199.513 500.222 159.285C493.918 147.142 486.87 135.743 479.274 125.441C479 125.049 479.078 124.501 479.47 124.227C479.861 123.953 480.409 124.031 480.683 124.423C488.358 134.842 495.445 146.28 501.788 158.501C522.814 199.082 531.468 240.721 523.872 264.576C521.327 272.567 517.059 278.13 511.225 281.146C508.014 282.752 504.49 283.574 500.692 283.574Z" fill="black"/>
<path d="M266.308 316.517C266.269 316.517 266.23 316.517 266.23 316.517L244.577 314.167C244.46 314.167 244.342 314.128 244.225 314.05C239.761 313.344 234.123 307.704 230.011 299.791C225.626 291.448 224.334 283.3 226.722 279.462L226.762 279.344L238.038 259.367C238.077 259.289 238.117 259.249 238.156 259.21L266.857 229.401C266.896 229.362 266.935 229.323 266.974 229.284L340.508 176.794L387.024 78.9845C387.141 78.7886 387.298 78.632 387.533 78.5536C387.768 78.4753 388.003 78.4753 388.199 78.5928C388.629 78.7886 388.825 79.2979 388.629 79.7288C376.844 104.994 386.163 155.211 411.77 204.645C437.417 254.157 473.165 290.821 500.692 295.874C501.122 295.953 501.436 296.344 501.396 296.814C501.357 297.245 500.966 297.559 500.535 297.598L499.791 297.559C499.752 297.559 499.713 297.559 499.674 297.559L392.936 279.266L307.108 309.976C307.069 309.976 306.991 310.015 306.951 310.015L266.426 316.478C266.387 316.517 266.348 316.517 266.308 316.517ZM245.204 312.522L266.308 314.794L306.638 308.331L392.623 277.581C392.78 277.542 392.897 277.503 393.054 277.542L489.141 293.994C463.181 282.595 432.836 248.947 410.321 205.468C387.964 162.301 377.979 118.469 383.461 90.775L342.035 177.735C341.956 177.852 341.878 177.97 341.761 178.048L268.11 230.655L239.526 260.307L228.249 280.284C228.249 280.323 228.21 280.363 228.21 280.363C226.174 283.535 227.545 291.37 231.499 299.008C235.376 306.49 240.975 312.13 244.812 312.404C244.969 312.404 245.086 312.444 245.204 312.522Z" fill="black"/>
<path d="M341.367 177.069L387.845 79.3369H387.884C376.333 104.093 384.751 154.271 411.025 205.037C437.376 255.881 473.634 291.8 500.573 296.736L499.829 296.697L393.052 278.404L390.586 277.973C378.173 275.779 361.611 259.641 349.747 236.608C337.569 212.988 335.416 189.447 340.819 178.244L341.367 177.069Z" fill="white"/>
<path d="M500.573 297.598C500.534 297.598 500.573 297.598 500.573 297.598L499.79 297.558C499.751 297.558 499.711 297.558 499.672 297.558L392.896 279.266L390.429 278.835C377.312 276.524 360.671 259.719 348.964 237.039C335.69 211.265 335.025 188.311 340.036 177.891L340.624 176.716L387.101 79.0236C387.218 78.8277 387.375 78.671 387.61 78.5927C387.845 78.5143 388.08 78.5143 388.276 78.6319C388.706 78.8277 388.902 79.3369 388.706 79.7678C376.921 105.033 386.24 155.25 411.847 204.684C437.494 254.196 473.243 290.86 500.769 295.913C501.199 295.992 501.513 296.383 501.473 296.853C501.356 297.245 501.004 297.598 500.573 297.598ZM383.381 90.7749L342.151 177.46L341.563 178.635C336.591 188.977 338.04 212.087 350.491 236.217C361.963 258.466 378.134 274.918 390.742 277.111L393.209 277.542L489.1 293.994C463.14 282.595 432.795 248.947 410.281 205.467C387.923 162.301 377.939 118.469 383.381 90.7749Z" fill="black"/>
<path d="M265.133 316.4C265.094 316.4 265.055 316.4 265.055 316.4L244.538 314.206C244.42 314.206 244.303 314.167 244.185 314.089C239.721 313.384 234.083 307.743 229.972 299.831C225.626 291.448 224.333 283.3 226.722 279.462L226.761 279.344L238.038 259.367C238.273 258.936 238.782 258.819 239.212 259.054C239.643 259.289 239.761 259.798 239.526 260.229L228.249 280.284C228.249 280.323 228.21 280.363 228.21 280.363C226.174 283.535 227.544 291.37 231.499 299.008C235.375 306.49 240.974 312.13 244.812 312.404C244.929 312.404 245.086 312.444 245.164 312.522L265.212 314.676C265.681 314.716 266.034 315.146 265.955 315.616C265.916 316.047 265.564 316.4 265.133 316.4Z" fill="black"/>
<path d="M266.503 315.538C259.847 315.068 250.528 305.628 243.754 292.584C236.589 278.756 234.905 264.459 239.29 259.367L227.583 279.736L227.505 279.892C225.273 283.339 226.565 291.291 230.755 299.399C234.866 307.39 240.661 312.953 244.733 313.266L244.616 313.344L266.503 315.538Z" fill="white"/>
<path d="M266.504 316.4C266.464 316.4 266.464 316.4 266.425 316.4C266.269 316.4 266.073 316.36 265.916 316.36L244.538 314.206C244.42 314.206 244.303 314.167 244.185 314.088C239.721 313.383 234.083 307.743 229.972 299.83C225.626 291.448 224.333 283.3 226.722 279.461L226.761 279.344L237.059 261.404C237.45 260.385 237.959 259.484 238.586 258.74C238.86 258.387 239.369 258.348 239.721 258.583C240.074 258.857 240.191 259.327 239.956 259.719L238.508 262.187C236.197 268.415 238.468 280.636 244.42 292.074C250.881 304.57 259.691 313.697 265.995 314.519L266.464 314.559C266.934 314.598 267.287 315.029 267.248 315.499C267.287 316.047 266.934 316.4 266.504 316.4ZM245.164 312.522L260.121 314.049C254.366 310.367 248.022 302.768 242.971 292.975C238.077 283.535 235.649 273.742 236.041 266.692L228.249 280.284C228.249 280.323 228.21 280.362 228.21 280.362C226.174 283.535 227.544 291.369 231.499 299.008C235.375 306.489 240.974 312.13 244.812 312.404C244.929 312.404 245.086 312.443 245.164 312.522Z" fill="black"/>
<path d="M305.345 309.388L307.068 309.035C297.749 310.994 283.026 296.892 272.65 276.876C262.039 256.429 260.042 236.021 267.56 229.988L266.581 230.968L239.368 259.249C234.905 264.263 236.549 278.639 243.754 292.544C250.684 305.941 260.512 315.499 267.208 315.459L305.345 309.388Z" fill="black"/>
<path d="M267.169 316.36C260.043 316.36 250.137 306.764 242.971 292.975C235.689 278.874 233.848 264.146 238.704 258.701L265.407 230.968C265.877 230.341 266.425 229.793 267.013 229.323C267.365 229.048 267.874 229.088 268.187 229.401C268.501 229.753 268.501 230.263 268.187 230.576L266.66 232.182C261.218 239.468 263.92 258.113 273.434 276.484C283.693 296.305 298.024 309.897 306.795 308.252L306.912 308.213C307.382 308.135 307.813 308.409 307.93 308.879C308.008 309.349 307.734 309.78 307.264 309.897C307.225 309.897 307.186 309.897 307.147 309.936L305.542 310.25H305.502L267.365 316.321C267.287 316.321 267.209 316.36 267.169 316.36ZM263.136 235.825L239.996 259.876C235.689 264.733 237.646 278.913 244.538 292.192C251.272 305.197 260.787 314.598 267.169 314.637L300.843 309.27C291.759 306.058 280.561 293.955 271.907 277.307C263.685 261.443 260.513 245.304 263.136 235.825Z" fill="black"/>
<path d="M430.878 161.479C424.731 164.612 425.631 179.145 433.462 193.638C446.579 217.885 457.034 215.025 458.248 214.594C458.287 214.594 458.287 214.634 458.248 214.634L435.733 232.77C429.116 223.486 422.812 213.145 417.017 201.981C411.496 191.288 406.837 180.633 403.156 170.292L430.878 161.479Z" fill="black"/>
<path d="M435.733 233.631C435.694 233.631 435.655 233.631 435.616 233.631C435.381 233.592 435.185 233.475 435.028 233.279C428.255 223.76 421.951 213.341 416.273 202.412C410.83 191.914 406.132 181.221 402.373 170.645C402.295 170.41 402.295 170.174 402.412 169.979C402.53 169.783 402.686 169.626 402.921 169.548L430.643 160.734C431.074 160.617 431.544 160.813 431.7 161.243C431.857 161.674 431.7 162.144 431.309 162.34C429.977 163.006 428.998 164.338 428.411 166.297C426.493 172.446 428.842 183.336 434.284 193.325C447.088 216.984 456.955 214.281 458.013 213.889C458.404 213.733 458.874 213.928 459.07 214.281C459.266 214.634 459.187 215.143 458.874 215.417L436.281 233.436C436.125 233.553 435.929 233.631 435.733 233.631ZM404.292 170.84C408.011 181.064 412.553 191.405 417.8 201.59C423.282 212.166 429.39 222.233 435.929 231.516L455.467 215.77C451.004 215.574 442.585 212.244 432.718 194.03C427.002 183.493 424.652 172.368 426.727 165.67C427.002 164.808 427.315 164.064 427.706 163.359L404.292 170.84Z" fill="black"/>
<path d="M546.723 105.597C564.623 96.1937 571.547 74.1159 562.187 56.2852C552.827 38.4545 530.729 31.6231 512.829 41.0268C494.929 50.4305 488.006 72.5083 497.365 90.339C506.725 108.17 528.823 115.001 546.723 105.597Z" fill="black"/>
<path d="M513.104 65.2352C514.827 62.8849 517.372 61.4356 520.27 61.1223C522.462 60.8872 524.498 61.3573 526.417 62.5324C527.396 63.12 528.257 63.8642 529.08 64.7652C529.667 63.7075 530.372 62.7674 531.194 61.984C532.799 60.4172 534.718 59.5162 536.872 59.2812C539.769 58.9678 542.588 59.8296 544.781 61.749C546.934 63.6292 548.305 66.3712 548.657 69.4657C549.01 72.6385 548.148 75.6939 545.956 79.0626C543.998 82.0787 541.022 85.2124 537.576 88.8945C536.402 90.1479 535.07 91.5581 533.7 93.0466C533.348 93.4383 532.839 93.7125 532.29 93.7517C531.742 93.83 531.233 93.6733 530.763 93.36C529.08 92.1848 527.474 91.0881 526.065 90.1479C521.914 87.3276 518.312 84.899 515.728 82.3921C512.83 79.611 511.342 76.7906 510.99 73.6178C510.677 70.5233 511.421 67.5463 513.104 65.2352Z" fill="white"/>
<path d="M648.272 107.592C661.377 94.4829 661.377 73.2281 648.272 60.1185C635.168 47.0089 613.922 47.0089 600.817 60.1185C587.713 73.228 587.713 94.4829 600.817 107.592C613.922 120.702 635.168 120.702 648.272 107.592Z" fill="#005FA0"/>
<path d="M624.539 118.273C605.587 118.273 590.121 102.84 590.121 83.8419C590.121 64.8832 605.548 49.4106 624.539 49.4106C643.529 49.4106 658.956 64.844 658.956 83.8419C658.956 102.801 643.529 118.273 624.539 118.273ZM624.539 51.1342C606.527 51.1342 591.844 65.7841 591.844 83.8419C591.844 101.861 606.488 116.55 624.539 116.55C642.55 116.55 657.233 101.9 657.233 83.8419C657.233 65.8233 642.589 51.1342 624.539 51.1342Z" fill="#005FA0"/>
<path d="M633.622 87.1713C631.743 87.1713 630.098 88.0723 629.002 89.4824L617.686 85.0561C617.686 84.8994 617.725 84.7819 617.725 84.6252C617.725 84.351 617.686 84.0768 617.647 83.8026L629.237 78.4362C630.294 79.6505 631.86 80.4339 633.622 80.4731C636.833 80.4731 639.495 77.8486 639.495 74.5974C639.495 71.3462 636.872 68.6826 633.622 68.6826C630.411 68.6826 627.749 71.3071 627.749 74.5583C627.749 74.8325 627.788 75.1067 627.827 75.3809L616.237 80.7473C615.18 79.533 613.614 78.7496 611.852 78.7104C608.641 78.7104 605.979 81.3348 605.979 84.586C605.979 87.8372 608.602 90.5009 611.852 90.5009C613.731 90.5009 615.376 89.5999 616.472 88.1898L627.788 92.6161C627.788 92.7728 627.749 92.8903 627.749 93.047C627.749 96.2982 630.372 98.9618 633.622 98.9618C636.833 98.9618 639.495 96.3373 639.495 93.0861C639.456 89.8349 636.833 87.2105 633.622 87.1713Z" fill="black"/>
<path d="M634.067 213.993C649.433 203.322 653.294 182.283 642.69 166.999C632.085 151.715 611.032 147.975 595.665 158.645C580.299 169.315 576.438 190.355 587.042 205.639C597.647 220.923 618.7 224.663 634.067 213.993Z" fill="black"/>
<path d="M606.411 202.373L601.478 175.619C601.243 174.248 602.496 173.112 603.827 173.465L632.998 181.73C634.486 182.161 634.838 184.08 633.624 185.02L609.348 203.509C608.291 204.371 606.685 203.783 606.411 202.373Z" fill="white"/>
<path d="M614.535 323.582C633.512 314.34 641.452 291.553 632.271 272.686C623.09 253.819 600.264 246.016 581.287 255.258C562.311 264.499 554.371 287.286 563.552 306.153C572.733 325.02 595.559 332.823 614.535 323.582Z" fill="#005FA0"/>
<path d="M597.718 328.347C593.646 328.347 589.495 327.72 585.462 326.349C575.595 323.059 567.607 316.165 562.987 306.842C558.367 297.559 557.662 287.022 560.99 277.151C567.881 256.821 590.043 245.735 610.443 252.512C620.31 255.802 628.298 262.696 632.918 272.019C637.539 281.303 638.243 291.84 634.915 301.711C629.355 318.006 614.045 328.347 597.718 328.347ZM598.109 252.277C582.486 252.277 567.842 262.148 562.556 277.738C559.385 287.178 560.05 297.245 564.475 306.098C568.899 314.99 576.535 321.61 585.971 324.743C605.47 331.206 626.653 320.63 633.232 301.202C636.403 291.761 635.737 281.694 631.313 272.842C626.888 263.95 619.253 257.33 609.817 254.196C605.94 252.865 601.986 252.277 598.109 252.277Z" fill="black"/>
<path d="M617.375 283.261C616.983 292.78 600.891 315.029 597.053 320.239C596.662 320.787 595.84 320.748 595.487 320.16C593.06 316.243 585.033 303.082 580.843 292.427C579.16 288.197 578.102 284.358 578.22 281.655C578.651 270.844 587.774 262.422 598.581 262.853C609.387 263.362 617.806 272.45 617.375 283.261Z" fill="black"/>
<path d="M604.13 288.827C607.632 285.324 607.632 279.644 604.13 276.141C600.628 272.638 594.951 272.638 591.45 276.141C587.948 279.644 587.948 285.324 591.45 288.827C594.951 292.33 600.628 292.33 604.13 288.827Z" fill="#005FA0"/>
<defs>
<clipPath id="clip0_36104_1549">
<rect width="36" height="36" fill="white" transform="translate(293.074 386)"/>
</clipPath>
<clipPath id="clip1_36104_1549">
<rect width="70.3259" height="70.3259" fill="white" transform="translate(107.803 272) rotate(45)"/>
</clipPath>
</defs>
</svg>
